<svg width="12" height="13" viewBox="0 0 12 13" fill="none" xmlns="http://www.w3.org/2000/svg">
<path d="M10.8389 11.6461L10.8389 11.6462C10.8541 11.7915 10.807 11.9366 10.709 12.0453L10.8389 11.6461ZM10.8389 11.6461L9.96803 3.35333L9.96802 3.35329M10.8389 11.6461L9.96802 3.35329M9.96802 3.35329C9.94039 3.09067 9.719 2.89118 9.45481 2.89118H7.99305M9.96802 3.35329L7.99305 2.89118M7.99305 2.89118V2.693C7.99305 1.43312 6.96826 0.408328 5.70838 0.408328C4.44841 0.408328 3.42361 1.43312 3.42361 2.693V2.89118H1.96185C1.69767 2.89118 1.47628 3.09067 1.44864 3.35329L1.44864 3.35333L0.577808 11.6461L0.577802 11.6462C0.562586 11.7916 0.609819 11.9366 0.707466 12.0452L0.707616 12.0454C0.80548 12.154 0.944852 12.216 1.09102 12.216H10.3256C10.4717 12.216 10.6111 12.154 10.709 12.0454L7.99305 2.89118ZM4.45562 2.693C4.45562 2.00249 5.01776 1.44034 5.70838 1.44034C6.3989 1.44034 6.96104 2.00248 6.96104 2.693V2.89118H4.45562V2.693ZM8.99014 3.92319L9.75262 11.184H1.66404L2.42653 3.92319H3.42361V4.4997C3.42361 4.78464 3.65468 5.01571 3.93962 5.01571C4.22456 5.01571 4.45562 4.78464 4.45562 4.4997V3.92319H6.96104V4.4997C6.96104 4.78464 7.1921 5.01571 7.47705 5.01571C7.76199 5.01571 7.99305 4.78464 7.99305 4.4997V3.92319H8.99014Z" fill="white" stroke="white" stroke-width="0.35" stroke-linejoin="round"/>
</svg>
